<svg width="87" height="87" viewBox="0 0 87 87" fill="none" xmlns="http://www.w3.org/2000/svg">
<path d="M86.2376 82.3473L62.2639 58.1275C67.742 51.5556 70.481 43.9922 70.481 35.4374C70.481 30.6217 69.5492 26.0327 67.6855 21.6703C65.8218 17.3079 63.3228 13.5404 60.1884 10.3678C57.054 7.19512 53.3126 4.67399 48.964 2.8044C44.6154 0.934799 40.0409 0 35.2405 0C28.8588 0 22.9572 1.57216 17.5355 4.71648C12.1139 7.86081 7.83593 12.1524 4.70156 17.5912C1.56719 23.03 0 28.9646 0 35.3949C0 41.8252 1.56719 47.7597 4.70156 53.1985C7.83593 58.6374 12.1139 62.9289 17.5355 66.0733C22.9572 69.2176 28.8588 70.7897 35.2405 70.7897C44.0506 70.7897 51.7877 67.872 58.4518 62.0366L82.3408 86.1714C82.5667 86.398 82.8067 86.5822 83.0609 86.7238C83.315 86.8654 83.5833 86.9504 83.8656 86.9788C84.148 87.0071 84.4304 87.0071 84.7128 86.9788C84.9951 86.9504 85.2634 86.8654 85.5175 86.7238C85.7717 86.5822 86.0117 86.398 86.2376 86.1714C86.7459 85.6615 87 85.0242 87 84.2593C87 83.4945 86.7459 82.8571 86.2376 82.3473ZM35.2405 65.2659C29.8189 65.2659 24.8208 63.9204 20.2463 61.2293C15.6719 58.5382 12.0574 54.8982 9.40312 50.3092C6.74878 45.7201 5.42162 40.7346 5.42162 35.3524C5.42162 29.9702 6.74878 24.9846 9.40312 20.3956C12.0574 15.8066 15.6719 12.1665 20.2463 9.47546C24.8208 6.78437 29.8048 5.43883 35.1982 5.43883C40.5915 5.43883 45.5755 6.78437 50.15 9.47546C54.7244 12.1665 58.353 15.8066 61.0355 20.3956C63.7181 24.9846 65.0594 29.9702 65.0594 35.3524C65.0594 43.3407 62.2921 50.2242 56.7575 56.0029C51.2795 61.725 44.6154 64.8127 36.7653 65.2659H35.2405ZM48.7945 32.633H37.9513V21.7553C37.9513 21.0188 37.6831 20.3814 37.1465 19.8432C36.61 19.305 35.9606 19.0359 35.1982 19.0359C34.4357 19.0359 33.8004 19.305 33.2921 19.8432C32.7838 20.3814 32.5297 21.0188 32.5297 21.7553V32.633H21.6865C20.8958 32.633 20.2463 32.9021 19.7381 33.4403C19.2298 33.9785 18.9757 34.6159 18.9757 35.3524C18.9757 36.0889 19.2298 36.7263 19.7381 37.2645C20.2463 37.8027 20.8958 38.0718 21.6865 38.0718H32.5297V48.9495C32.5297 49.686 32.7838 50.3233 33.2921 50.8615C33.8004 51.3998 34.4357 51.6689 35.1982 51.6689C35.9606 51.6689 36.61 51.3998 37.1465 50.8615C37.6831 50.3233 37.9513 49.686 37.9513 48.9495V38.0718H48.7945C49.5287 38.0718 50.1641 37.8027 50.7006 37.2645C51.2371 36.7263 51.5054 36.0889 51.5054 35.3524C51.5054 34.6159 51.2371 33.9785 50.7006 33.4403C50.1641 32.9021 49.5287 32.633 48.7945 32.633Z" fill="#F2F3F5" fill-opacity="0.5"/>
</svg>
