<svg width="70" height="70" viewBox="0 0 70 70" fill="none" xmlns="http://www.w3.org/2000/svg">
<path d="M8.75 26.57V43.3992C8.75 49.5825 8.75 49.5825 14.5833 53.52L30.625 62.795C33.0458 64.195 36.9833 64.195 39.375 62.795L55.4167 53.52C61.25 49.5825 61.25 49.5825 61.25 43.4283V26.57C61.25 20.4158 61.25 20.4158 55.4167 16.4783L39.375 7.20332C36.9833 5.80332 33.0458 5.80332 30.625 7.20332L14.5833 16.4783C8.75 20.4158 8.75 20.4158 8.75 26.57Z" stroke="#5B5B5B" stroke-width="2" stroke-linecap="round" stroke-linejoin="round"/>
<path d="M35 43.75C39.8325 43.75 43.75 39.8325 43.75 35C43.75 30.1675 39.8325 26.25 35 26.25C30.1675 26.25 26.25 30.1675 26.25 35C26.25 39.8325 30.1675 43.75 35 43.75Z" stroke="#5B5B5B" stroke-width="2" stroke-linecap="round" stroke-linejoin="round"/>
</svg>
